:SAMPLES-PER-SECOND 30
:FULLY-SPECIFIED
:DEGREES
1
root  1.66167 40.9794 0.948608 172.188 -87.2889 -175.334
RightUpLeg  0.275764 -8.67651 -6.40495
RightLeg  3.95984 -5.26923 3.46432
RightFoot  0.694579 -0.0428741 0.467666
RightToes  0.000482159 0.542163 -0.142577
Spine  6.19325 0.491046 -1.84382
Spine1  -0.140591 0.119261 1.86696
HEad  1.13509 -11.7191 -0.0359735
LeftShoulder1  0.881066 -2.76076 -6.47253
LeftArm  -19.5343 10.9 -4.43525
LeftForeArm  -1.29459 -0.0506588 -0.777541
LeftHand  -0.25398 0.0180481 5.50724
RightShoulder  0.541846 0.639447 5.23657
RightArm  -16.5811 1.27957 1.13988
RightForeArm  4.65533 1.16021 4.12426
RightHand  -2.47656 7.87534 -21.846
LeftUpLeg  1.44237 5.78474 3.30415
LeftLeg  4.37812 12.3919 -3.54919
LeftFoot  -3.22653 -0.0252385 0.757716
LeftToes  1.06247e-005 4.65855e-005 -8.18501e-006
2
root  1.6556 40.9794 0.946978 172.266 -87.2644 -175.397
RightUpLeg  0.260417 -8.67651 -6.40495
RightLeg  3.97089 -5.25099 3.46201
RightFoot  0.684875 -0.0409426 0.437684
RightToes  0.000482159 0.542163 -0.142577
Spine  6.19493 0.482445 -1.85871
Spine1  -0.146973 0.109655 1.86904
HEad  1.19297 -11.6825 -0.0328497
LeftShoulder1  0.881066 -2.76076 -6.43709
LeftArm  -19.6607 10.939 -4.43888
LeftForeArm  -0.859538 0.0160362 -0.687992
LeftHand  -0.25398 0.0180481 5.50724
RightShoulder  0.541842 0.60553 5.22107
RightArm  -16.6209 1.32684 1.2014
RightForeArm  4.69581 1.16101 4.11617
RightHand  -2.46936 7.86818 -21.7964
LeftUpLeg  1.44308 5.79531 3.3048
LeftLeg  4.37911 12.4045 -3.55922
LeftFoot  -3.23512 -0.0225738 0.7163
LeftToes  1.06247e-005 4.65855e-005 -8.18501e-006
3
root  1.64633 40.9794 0.944423 172.389 -87.2415 -175.489
RightUpLeg  0.229293 -8.67651 -6.40496
RightLeg  3.98781 -5.22585 3.45808
RightFoot  0.672516 -0.0379109 0.390624
RightToes  0.000482159 0.542163 -0.142577
Spine  6.21263 0.460422 -1.87261
Spine1  -0.179578 0.0908908 1.84722
HEad  1.24764 -11.6334 -0.0185569
LeftShoulder1  0.881066 -2.76155 -6.3492
LeftArm  -19.746 10.9525 -4.48089
LeftForeArm  -0.38187 0.15208 -0.607493
LeftHand  -0.25398 0.0180481 5.50724
RightShoulder  0.541823 0.591305 5.16381
RightArm  -16.6415 1.33854 1.32983
RightForeArm  4.75858 1.13098 4.1072
RightHand  -2.46229 7.88271 -21.7142
LeftUpLeg  1.42367 5.80129 3.30287
LeftLeg  4.38913 12.4214 -3.55909
LeftFoot  -3.25345 -0.0202205 0.679725
LeftToes  1.06247e-005 4.65855e-005 -8.18501e-006
4
root  1.63815 40.9794 0.942498 172.553 -87.2335 -175.641
RightUpLeg  0.215371 -8.67636 -6.40753
RightLeg  4.01088 -5.20544 3.45116
RightFoot  0.653161 -0.0369264 0.375341
RightToes  0.000482159 0.542163 -0.142577
Spine  6.25041 0.443671 -1.88517
Spine1  -0.201337 0.0770498 1.82629
HEad  1.24685 -11.6474 0.00284894
LeftShoulder1  0.882778 -2.77534 -6.30088
LeftArm  -19.6491 10.9279 -4.51283
LeftForeArm  -0.426871 0.249816 -0.638091
LeftHand  -0.25398 0.0180481 5.50724
RightShoulder  0.541792 0.651374 5.07866
RightArm  -16.5387 1.24622 1.41617
RightForeArm  4.74501 1.09306 4.12864
RightHand  -2.45756 7.88884 -21.6649
LeftUpLeg  1.4142 5.79276 3.29175
LeftLeg  4.41095 12.4384 -3.54144
LeftFoot  -3.2728 -0.0205211 0.684396
LeftToes  1.06247e-005 4.65855e-005 -8.18501e-006
5
root  1.62945 40.9794 0.942099 172.705 -87.2198 -175.82
RightUpLeg  0.242867 -8.67594 -6.41778
RightLeg  4.03849 -5.18567 3.44543
RightFoot  0.627411 -0.0378838 0.390204
RightToes  0.000482159 0.542163 -0.142577
Spine  6.30101 0.446732 -1.89795
Spine1  -0.172042 0.0787938 1.82463
HEad  1.21765 -11.7156 0.0357106
LeftShoulder1  0.889447 -2.81804 -6.32532
LeftArm  -19.6152 10.9385 -4.4695
LeftForeArm  -0.285064 0.345394 -0.625107
LeftHand  -0.25398 0.0180481 5.50724
RightShoulder  0.541051 0.721469 5.02517
RightArm  -16.3833 1.13864 1.39321
RightForeArm  4.78113 1.09826 4.16108
RightHand  -2.4321 7.78283 -21.6134
LeftUpLeg  1.45703 5.77978 3.27862
LeftLeg  4.41562 12.4644 -3.5244
LeftFoot  -3.28982 -0.0213187 0.696793
LeftToes  1.06247e-005 4.65855e-005 -8.18501e-006
6
root  1.61711 40.9794 0.944156 172.79 -87.1828 -175.935
RightUpLeg  0.28067 -8.67718 -6.42754
RightLeg  4.05564 -5.15374 3.4438
RightFoot  0.605835 -0.0380101 0.392164
RightToes  0.000482159 0.542163 -0.142577
Spine  6.3446 0.454307 -1.88717
Spine1  -0.12615 0.0894221 1.79996
HEad  1.20563 -11.7638 0.0883387
LeftShoulder1  0.890437 -2.82691 -6.32093
LeftArm  -19.7696 11.0007 -4.4321
LeftForeArm  0.49542 0.477889 -0.491571
LeftHand  -0.25398 0.0180481 5.50724
RightShoulder  0.537847 0.715317 5.01394
RightArm  -16.3505 1.13501 1.34463
RightForeArm  4.96649 1.13396 4.15613
RightHand  -2.39232 7.61278 -21.5386
LeftUpLeg  1.51657 5.77214 3.27412
LeftLeg  4.40815 12.5072 -3.51783
LeftFoot  -3.30871 -0.0205749 0.685233
LeftToes  1.06247e-005 4.65855e-005 -8.18501e-006
7
root  1.60057 40.9794 0.949133 172.805 -87.1321 -175.932
RightUpLeg  0.287289 -8.67786 -6.43301
RightLeg  4.04253 -5.10558 3.45253
RightFoot  0.595913 -0.0374044 0.382762
RightToes  0.000482159 0.542163 -0.142577
Spine  6.35897 0.439948 -1.8266
Spine1  -0.123072 0.0932814 1.70355
HEad  1.21835 -11.7911 0.139654
LeftShoulder1  0.873045 -2.74766 -6.20754
LeftArm  -19.8333 11.0532 -4.52805
LeftForeArm  0.905932 0.508897 -0.439686
LeftHand  -0.25398 0.0180481 5.50724
RightShoulder  0.536217 0.673217 5.01155
RightArm  -16.425 1.21477 1.34404
RightForeArm  5.02312 1.13773 4.13657
RightHand  -2.39164 7.60079 -21.5514
LeftUpLeg  1.52317 5.77201 3.27155
LeftLeg  4.42032 12.5527 -3.51396
LeftFoot  -3.33117 -0.0193887 0.666797
LeftToes  1.06247e-005 4.65855e-005 -8.18501e-006
8
root  1.58177 40.9794 0.95554 172.712 -87.088 -175.784
RightUpLeg  0.274558 -8.67479 -6.43028
RightLeg  3.99629 -5.06163 3.46947
RightFoot  0.599775 -0.0389169 0.406241
RightToes  0.000482159 0.542163 -0.142577
Spine  6.34398 0.405485 -1.72924
Spine1  -0.157432 0.0893813 1.5521
HEad  1.24038 -11.8642 0.186921
LeftShoulder1  0.84967 -2.65011 -6.02887
LeftArm  -19.6802 11.106 -4.70426
LeftForeArm  0.358695 0.356735 -0.557475
LeftHand  -0.25398 0.0180481 5.50724
RightShoulder  0.54061 0.698547 5.04882
RightArm  -16.4053 1.28455 1.28764
RightForeArm  4.67893 1.08161 4.17399
RightHand  -2.45145 7.81097 -21.7336
LeftUpLeg  1.48038 5.78245 3.27373
LeftLeg  4.45552 12.5761 -3.51015
LeftFoot  -3.35113 -0.0195119 0.668712
LeftToes  1.06247e-005 4.65855e-005 -8.18501e-006
9
root  1.5633 40.9794 0.961083 172.564 -87.0537 -175.593
RightUpLeg  0.273864 -8.66331 -6.41817
RightLeg  3.94647 -5.0386 3.46972
RightFoot  0.611894 -0.0415455 0.447043
RightToes  0.000482159 0.542163 -0.142577
Spine  6.32325 0.378658 -1.64801
Spine1  -0.176737 0.0915464 1.40958
HEad  1.27549 -11.969 0.276137
LeftShoulder1  0.838305 -2.64223 -5.84184
LeftArm  -19.6362 11.2526 -4.79858
LeftForeArm  0.0722623 0.212247 -0.596667
LeftHand  -0.25398 0.0180481 5.50724
RightShoulder  0.555446 0.778069 5.17065
RightArm  -16.2659 1.34984 1.08742
RightForeArm  4.22476 0.97645 4.25137
RightHand  -2.51644 8.0172 -21.9603
LeftUpLeg  1.45139 5.80243 3.28207
LeftLeg  4.48151 12.5841 -3.51372
LeftFoot  -3.36217 -0.0207705 0.688273
LeftToes  1.06247e-005 4.65855e-005 -8.18501e-006
10
root  1.54628 40.9794 0.966229 172.626 -87.021 -175.639
RightUpLeg  0.281994 -8.65102 -6.41589
RightLeg  3.93115 -5.01223 3.45431
RightFoot  0.615361 -0.0409008 0.437035
RightToes  0.000482159 0.542163 -0.142577
Spine  6.30293 0.371846 -1.62362
Spine1  -0.140229 0.102308 1.3231
HEad  1.33564 -12.02 0.41106
LeftShoulder1  0.83586 -2.69717 -5.66308
LeftArm  -19.8448 11.4646 -4.79138
LeftForeArm  0.966709 0.247582 -0.432408
LeftHand  -0.25398 0.0180481 5.50724
RightShoulder  0.562439 0.804279 5.26494
RightArm  -16.2377 1.46161 0.914801
RightForeArm  4.17845 0.839047 4.26168
RightHand  -2.52737 8.03196 -22.0282
LeftUpLeg  1.46523 5.81196 3.281
LeftLeg  4.47652 12.6115 -3.52384
LeftFoot  -3.36545 -0.0220129 0.707583
LeftToes  1.06247e-005 4.65855e-005 -8.18501e-006
11
root  1.52875 40.9795 0.974029 172.993 -86.991 -176.001
RightUpLeg  0.288764 -8.66736 -6.44641
RightLeg  3.94915 -4.95838 3.45178
RightFoot  0.600996 -0.0374339 0.383219
RightToes  0.000482159 0.542163 -0.142577
Spine  6.25284 0.370803 -1.63953
Spine1  -0.0263303 0.106976 1.29931
HEad  1.40375 -12.021 0.49532
LeftShoulder1  0.830179 -2.69853 -5.55723
LeftArm  -19.9503 11.562 -4.78232
LeftForeArm  1.64481 0.307258 -0.334073
LeftHand  -0.25398 0.0180481 5.50724
RightShoulder  0.552087 0.757108 5.15332
RightArm  -16.4178 1.56018 0.982591
RightForeArm  4.53886 0.720933 4.17619
RightHand  -2.49432 7.94132 -21.8927
LeftUpLeg  1.50258 5.79809 3.25411
LeftLeg  4.45054 12.6601 -3.53326
LeftFoot  -3.36977 -0.0226308 0.717185
LeftToes  1.06247e-005 4.65855e-005 -8.18501e-006
